<svg width="126" height="36" viewBox="0 0 126 36" fill="none" xmlns="http://www.w3.org/2000/svg">
<path d="M3.648 22.088C3.744 22.488 3.904 22.792 4.128 23C4.368 23.208 4.632 23.36 4.92 23.456C5.224 23.536 5.528 23.576 5.832 23.576C6.392 23.576 6.832 23.472 7.152 23.264C7.472 23.04 7.632 22.76 7.632 22.424C7.632 22.136 7.52 21.912 7.296 21.752C7.072 21.576 6.784 21.44 6.432 21.344C6.096 21.248 5.736 21.16 5.352 21.08C4.92 20.968 4.456 20.848 3.96 20.72C3.48 20.576 3.024 20.376 2.592 20.12C2.16 19.864 1.8 19.536 1.512 19.136C1.24 18.72 1.104 18.2 1.104 17.576C1.104 16.824 1.304 16.176 1.704 15.632C2.104 15.072 2.664 14.632 3.384 14.312C4.12 13.992 4.968 13.832 5.928 13.832C7.064 13.832 8.024 14.072 8.808 14.552C9.592 15.032 10.16 15.72 10.512 16.616L7.824 17.384C7.728 17.16 7.584 16.976 7.392 16.832C7.2 16.688 6.968 16.584 6.696 16.52C6.44 16.456 6.176 16.424 5.904 16.424C5.44 16.424 5.056 16.52 4.752 16.712C4.448 16.888 4.296 17.136 4.296 17.456C4.296 17.648 4.352 17.808 4.464 17.936C4.576 18.048 4.728 18.144 4.92 18.224C5.128 18.304 5.36 18.376 5.616 18.44C5.888 18.504 6.184 18.576 6.504 18.656C7 18.784 7.496 18.936 7.992 19.112C8.504 19.272 8.968 19.48 9.384 19.736C9.816 19.992 10.16 20.336 10.416 20.768C10.672 21.2 10.816 21.744 10.848 22.4C10.848 23.104 10.648 23.744 10.248 24.32C9.848 24.88 9.272 25.328 8.52 25.664C7.768 26 6.856 26.168 5.784 26.168C4.536 26.168 3.472 25.904 2.592 25.376C1.728 24.848 1.16 24.024 0.888 22.904L3.648 22.088ZM18.9188 26H15.7748L12.2228 14H15.3908L17.3828 22.112L19.4948 14H22.5668L24.6068 22.112L26.5748 14H29.7188L26.1668 26H22.9508L20.9588 18.464L18.9188 26ZM32.0835 14H35.1555V26H32.0835V14ZM33.6435 12.464C33.0675 12.464 32.5955 12.28 32.2275 11.912C31.8595 11.544 31.6755 11.104 31.6755 10.592C31.6755 10.064 31.8595 9.624 32.2275 9.272C32.5955 8.904 33.0675 8.72 33.6435 8.72C34.1875 8.72 34.6435 8.904 35.0115 9.272C35.3955 9.624 35.5875 10.064 35.5875 10.592C35.5875 11.104 35.3955 11.544 35.0115 11.912C34.6435 12.28 34.1875 12.464 33.6435 12.464ZM39.0953 12.92C39.0953 11.88 39.2793 11.032 39.6473 10.376C40.0313 9.72 40.5913 9.248 41.3273 8.96C42.0793 8.672 43.0153 8.592 44.1353 8.72V11.432C43.4313 11.336 42.9273 11.432 42.6233 11.72C42.3353 12.008 42.1913 12.456 42.1913 13.064V14H44.2553V16.712H42.1913V26H39.0953V16.712H37.6793V14H39.0953V12.92ZM47.3051 14V10.64H50.4011V14H53.0651V16.712H50.4011V21.584C50.4011 22.208 50.5371 22.648 50.8091 22.904C51.0811 23.16 51.4171 23.296 51.8171 23.312C52.2331 23.328 52.6491 23.304 53.0651 23.24V25.88C52.3291 26.04 51.6091 26.088 50.9051 26.024C50.2171 25.96 49.6011 25.776 49.0571 25.472C48.5131 25.152 48.0811 24.672 47.7611 24.032C47.4571 23.392 47.3051 22.576 47.3051 21.584V16.712H45.6011V14H47.3051Z" fill="#343A40"/>
<path d="M54.6056 17.6C54.6056 16.336 54.8136 15.184 55.2296 14.144C55.6616 13.088 56.2616 12.184 57.0296 11.432C57.7976 10.664 58.6936 10.072 59.7176 9.656C60.7576 9.24 61.8776 9.032 63.0776 9.032C64.8056 9.032 66.3336 9.448 67.6616 10.28C69.0056 11.096 70.0136 12.272 70.6856 13.808L67.9736 14.6C67.6216 13.928 67.1816 13.384 66.6536 12.968C66.1416 12.552 65.5816 12.248 64.9736 12.056C64.3656 11.864 63.7496 11.768 63.1256 11.768C62.1016 11.768 61.1896 12.016 60.3896 12.512C59.5896 12.992 58.9656 13.672 58.5176 14.552C58.0856 15.432 57.8696 16.448 57.8696 17.6C57.8696 18.752 58.0856 19.768 58.5176 20.648C58.9656 21.512 59.5896 22.192 60.3896 22.688C61.1896 23.184 62.1016 23.432 63.1256 23.432C63.7656 23.432 64.3976 23.336 65.0216 23.144C65.6616 22.936 66.2536 22.592 66.7976 22.112C67.3416 21.632 67.8056 20.992 68.1896 20.192L70.8536 20.936C70.1656 22.68 69.1416 23.992 67.7816 24.872C66.4216 25.736 64.8536 26.168 63.0776 26.168C61.8776 26.168 60.7576 25.96 59.7176 25.544C58.6936 25.128 57.7976 24.536 57.0296 23.768C56.2616 23 55.6616 22.096 55.2296 21.056C54.8136 20 54.6056 18.848 54.6056 17.6ZM83.1857 14.384C83.1857 13.632 82.9537 13.032 82.4897 12.584C82.0417 12.136 81.3377 11.912 80.3777 11.912H76.8017V16.88H80.3777C81.0177 16.88 81.5457 16.784 81.9617 16.592C82.3777 16.384 82.6817 16.096 82.8737 15.728C83.0817 15.344 83.1857 14.896 83.1857 14.384ZM80.4737 9.2C81.8337 9.2 82.9537 9.44 83.8337 9.92C84.7297 10.384 85.3937 11.016 85.8257 11.816C86.2737 12.6 86.4977 13.456 86.4977 14.384C86.4977 15.008 86.3857 15.632 86.1617 16.256C85.9377 16.864 85.5857 17.424 85.1057 17.936C84.6257 18.432 84.0017 18.832 83.2337 19.136C82.4817 19.44 81.5617 19.592 80.4737 19.592H76.8017V26H73.5617V9.2H80.4737ZM82.2977 18.512L86.8337 26H83.2097L78.8657 18.512H82.2977ZM92.5517 26H89.3117V9.2H93.0077L98.3597 21.776L103.712 9.2H107.408V26H104.168V15.152L99.6317 26H97.0877L92.5517 15.152V26Z" fill="#9A55FF"/>
</svg>
